<svg xmlns="http://www.w3.org/2000/svg" viewBox="-178.00 -178.00 1363.98 359.12" role="img" aria-label="Rose’s Gourmet Compass">
<title>Rose’s Gourmet Compass</title>
<circle cx="0" cy="0" r="118.000" fill="none" stroke="#111111" stroke-width="2.596"/>
<circle cx="0" cy="0" r="70.800" fill="none" stroke="#111111" stroke-width="1.298" stroke-opacity="0.2"/>
<line x1="73.426" y1="-73.426" x2="82.187" y2="-82.187" stroke="#111111" stroke-opacity="0.38" stroke-width="1.888" stroke-linecap="round"/>
<line x1="73.426" y1="73.426" x2="82.187" y2="82.187" stroke="#111111" stroke-opacity="0.38" stroke-width="1.888" stroke-linecap="round"/>
<line x1="-73.426" y1="73.426" x2="-82.187" y2="82.187" stroke="#111111" stroke-opacity="0.38" stroke-width="1.888" stroke-linecap="round"/>
<line x1="-73.426" y1="-73.426" x2="-82.187" y2="-82.187" stroke="#111111" stroke-opacity="0.38" stroke-width="1.888" stroke-linecap="round"/>
<circle cx="0.000" cy="-118.000" r="2.596" fill="#111111"/>
<circle cx="118.000" cy="-0.000" r="2.596" fill="#111111"/>
<circle cx="0.000" cy="118.000" r="2.596" fill="#111111"/>
<circle cx="-118.000" cy="0.000" r="2.596" fill="#111111"/>
<path d="M -84.960,0.000 L 0.000,-5.900 L 0.000,0.000 Z" fill="#4c4b5b"/>
<path d="M -84.960,0.000 L 0.000,5.900 L 0.000,0.000 Z" fill="#4c4b5b"/>
<path d="M 84.960,-0.000 L 0.000,-5.900 L 0.000,0.000 Z" fill="#4c4b5b"/>
<path d="M 84.960,-0.000 L 0.000,5.900 L 0.000,0.000 Z" fill="#4c4b5b"/>
<path d="M 0.000,-101.480 L 9.204,0.000 L -9.204,0.000 Z" fill="#277a70"/>
<path d="M 0.000,101.480 L 9.204,0.000 L -9.204,0.000 Z" fill="#111111"/>
<circle cx="0" cy="0" r="7.080" fill="none" stroke="#111111" stroke-width="1.888"/>
<circle cx="0" cy="0" r="2.360" fill="#277a70"/>
<line x1="184.000" y1="-94.400" x2="184.000" y2="94.400" stroke="#111111" stroke-opacity="0.294" stroke-width="3.000" stroke-linecap="round"/>
<path d="M1289 1225Q1304 1225 1315.5 1214.5Q1327 1204 1327 1187Q1327 1165 1308 1154Q1305 1152 1281.5 1135.0Q1258 1118 1230.0 1080.0Q1202 1042 1176.0 979.5Q1150 917 1143 825Q1141 809 1140.5 793.0Q1140 777 1139 761Q1157 763 1176.5 764.5Q1196 766 1218 766Q1290 766 1357.0 750.0Q1424 734 1480 704Q1625 762 1702.0 858.0Q1779 954 1779 1072Q1779 1160 1735.0 1228.5Q1691 1297 1611.5 1344.0Q1532 1391 1421.5 1416.0Q1311 1441 1179 1441Q1064 1441 944.5 1423.5Q825 1406 713.5 1371.0Q602 1336 504.0 1284.0Q406 1232 333.0 1164.5Q260 1097 218.0 1014.0Q176 931 176 834Q176 762 201.0 707.5Q226 653 267.5 616.5Q309 580 363.0 561.5Q417 543 476 543Q546 543 599.0 557.0Q652 571 688.0 587.5Q724 604 742.5 618.5Q761 633 763 635Q770 640 779.0 646.5Q788 653 798 653Q813 653 824.0 642.5Q835 632 835 616Q835 600 824 590Q822 588 798.5 568.5Q775 549 731.0 527.0Q687 505 623.5 487.0Q560 469 478 469Q402 469 333.5 494.0Q265 519 213.0 566.0Q161 613 130.5 680.5Q100 748 100 834Q100 929 139.0 1016.5Q178 1104 249.0 1180.0Q320 1256 419.0 1317.5Q518 1379 637.5 1423.0Q757 1467 894.0 1491.0Q1031 1515 1177 1515Q1326 1515 1450.5 1485.5Q1575 1456 1665.0 1400.5Q1755 1345 1805.0 1264.5Q1855 1184 1855 1082Q1855 947 1777.5 837.0Q1700 727 1550 654Q1605 607 1636.5 544.5Q1668 482 1683.5 418.0Q1699 354 1703.5 296.0Q1708 238 1710 199Q1712 142 1720.5 106.5Q1729 71 1744.5 51.0Q1760 31 1782.5 23.5Q1805 16 1837 16Q1882 16 1920.0 37.5Q1958 59 1988.5 91.0Q2019 123 2042.5 160.5Q2066 198 2082.0 230.5Q2098 263 2106.5 284.5Q2115 306 2115 307Q2125 332 2150 332Q2167 332 2177.5 320.5Q2188 309 2188 294Q2188 289 2186 281Q2185 277 2174.5 250.5Q2164 224 2144.0 186.5Q2124 149 2094.0 106.0Q2064 63 2024.5 26.5Q1985 -10 1935.5 -34.0Q1886 -58 1826 -58Q1773 -58 1737.5 -41.0Q1702 -24 1679.5 8.5Q1657 41 1646.5 87.5Q1636 134 1634 194Q1633 219 1631.0 253.5Q1629 288 1623.5 326.5Q1618 365 1608.0 406.0Q1598 447 1580.0 486.0Q1562 525 1535.0 560.0Q1508 595 1469 621Q1392 595 1309.5 580.5Q1227 566 1139 565V535Q1139 412 1114.5 304.5Q1090 197 1035.0 117.5Q980 38 893.0 -7.5Q806 -53 681 -53Q619 -53 558.5 -36.5Q498 -20 445.5 9.0Q393 38 351.5 77.5Q310 117 286 163Q281 171 281 181Q281 195 291.5 206.5Q302 218 319 218Q341 218 352 199Q374 160 409.0 127.0Q444 94 487.5 70.5Q531 47 580.5 34.0Q630 21 681 21Q784 21 857.0 57.5Q930 94 976.0 161.5Q1022 229 1043.0 323.5Q1064 418 1064 535V574Q1031 585 1011.0 605.0Q991 625 991 654Q991 683 1010.0 705.0Q1029 727 1064 741Q1064 764 1065.0 786.5Q1066 809 1068 831Q1074 903 1090.5 960.0Q1107 1017 1129.5 1060.0Q1152 1103 1176.0 1133.0Q1200 1163 1221.0 1182.5Q1242 1202 1256.0 1211.0Q1270 1220 1272 1221Q1279 1225 1289 1225ZM1383 667Q1366 672 1350.0 677.0Q1334 682 1315.5 685.5Q1297 689 1274.5 691.5Q1252 694 1223 694Q1171 694 1138 688V687V639Q1199 639 1263.5 646.0Q1328 653 1383 667Z" transform="translate(240.000,-14.000) scale(0.04883,-0.04883)" fill="#277a70"/>
<path d="M499 110Q474 110 455 114Q440 84 419.0 58.5Q398 33 370.5 14.0Q343 -5 309.0 -16.0Q275 -27 235 -27Q188 -27 149.0 -10.5Q110 6 81.0 35.5Q52 65 36.0 106.5Q20 148 20 198Q20 262 43.0 309.5Q66 357 96.0 388.5Q126 420 156.0 435.5Q186 451 201 451Q218 451 226.5 442.0Q235 433 235 418Q235 401 224.5 392.5Q214 384 198 376Q182 368 164.0 353.5Q146 339 130.5 317.0Q115 295 105.0 265.0Q95 235 95 198Q95 165 105.0 136.5Q115 108 134.0 87.5Q153 67 179.0 55.5Q205 44 237 44Q294 44 331.5 70.5Q369 97 389 138Q330 169 292.0 226.0Q254 283 254 354Q254 411 281.5 447.0Q309 483 354 483Q381 483 405.0 470.0Q429 457 447.5 429.0Q466 401 477.0 357.0Q488 313 488 252Q488 220 480 185Q486 184 492.0 184.0Q498 184 505 184Q539 184 566.0 192.0Q593 200 615.0 216.0Q637 232 654.5 257.0Q672 282 688 315Q691 321 701.0 326.5Q711 332 721 332Q734 332 745.5 321.5Q757 311 757 294Q757 286 753.0 276.5Q749 267 745 259Q728 229 705.5 201.5Q683 174 652.5 153.5Q622 133 584.0 121.0Q546 109 499 110ZM328 362Q328 343 333.0 322.0Q338 301 348.5 280.5Q359 260 374.5 241.5Q390 223 411 210Q414 231 414 251Q414 278 410.0 306.0Q406 334 398.5 357.5Q391 381 380.0 395.5Q369 410 354 410Q348 410 338.0 401.0Q328 392 328 362Z" transform="translate(341.221,-14.000) scale(0.04883,-0.04883)" fill="#277a70"/>
<path d="M149 370Q143 354 134.5 334.0Q126 314 115 292Q106 275 96.5 265.5Q87 256 72 256Q55 256 45.0 266.5Q35 277 35 291Q35 296 36.0 299.5Q37 303 41 311Q67 361 79.5 398.5Q92 436 100 477Q93 500 90.0 516.0Q87 532 87 549Q87 582 101.0 602.5Q115 623 140 623Q163 623 176.5 603.0Q190 583 190 554Q190 538 187.0 522.0Q184 506 179 482Q202 425 225.0 381.0Q248 337 266.0 300.5Q284 264 295.5 232.0Q307 200 307 168Q307 126 290.0 88.0Q273 50 234 24Q239 23 244.0 23.0Q249 23 254 23Q311 23 359.0 49.0Q407 75 445.5 116.5Q484 158 514.0 208.5Q544 259 566 309Q576 332 594 332Q611 332 620.5 320.0Q630 308 630 294Q630 286 627 279Q616 252 598.5 217.5Q581 183 556.5 146.5Q532 110 500.0 75.0Q468 40 428.5 12.5Q389 -15 342.0 -31.5Q295 -48 239 -48Q172 -48 114.5 -24.5Q57 -1 21 53Q15 62 15 72Q15 87 26.5 98.5Q38 110 53 110Q69 110 80 99Q81 97 87.0 92.5Q93 88 101.5 82.5Q110 77 121.5 73.0Q133 69 145 69Q169 69 185.5 79.0Q202 89 212.0 103.5Q222 118 226.5 134.5Q231 151 231 163Q231 188 223.0 213.0Q215 238 202.5 263.0Q190 288 175.5 314.5Q161 341 149 370Z" transform="translate(372.812,-14.000) scale(0.04883,-0.04883)" fill="#277a70"/>
<path d="M158 110Q179 81 212.0 63.5Q245 46 293 46Q342 46 382.0 69.5Q422 93 455.0 131.0Q488 169 514.0 216.0Q540 263 561 310Q566 321 575.0 326.5Q584 332 595 332Q612 332 622.5 320.0Q633 308 633 294Q633 289 632.0 285.5Q631 282 629 278Q560 126 478.5 49.0Q397 -28 294 -30Q228 -30 180.0 -4.5Q132 21 101.0 61.5Q70 102 55.0 153.0Q40 204 40 255Q40 306 52.5 349.0Q65 392 88.5 424.0Q112 456 144.5 474.0Q177 492 216 492Q239 492 261.5 482.5Q284 473 302.0 455.5Q320 438 331.0 413.0Q342 388 342 356Q342 315 328.0 279.0Q314 243 289.5 212.0Q265 181 231.0 155.0Q197 129 158 110ZM128 175Q159 188 184.5 208.0Q210 228 228.0 252.0Q246 276 256.0 302.5Q266 329 266 356Q266 386 251.0 401.5Q236 417 216 417Q189 417 170.0 402.0Q151 387 139.0 363.0Q127 339 121.5 309.5Q116 280 116 251Q116 233 119.5 213.0Q123 193 128 175Z" transform="translate(398.203,-14.000) scale(0.04883,-0.04883)" fill="#277a70"/>
<path d="M246 1364Q252 1211 146 1103Q133 1092 119 1092Q103 1092 92 1103Q81 1114 81.0 1129.5Q81 1145 92 1156Q175 1241 171 1361Q170 1377 180.5 1388.5Q191 1400 207 1400Q222 1400 233.5 1390.0Q245 1380 246 1364Z" transform="translate(423.740,-14.000) scale(0.04883,-0.04883)" fill="#277a70"/>
<path d="M149 370Q143 354 134.5 334.0Q126 314 115 292Q106 275 96.5 265.5Q87 256 72 256Q55 256 45.0 266.5Q35 277 35 291Q35 296 36.0 299.5Q37 303 41 311Q67 361 79.5 398.5Q92 436 100 477Q93 500 90.0 516.0Q87 532 87 549Q87 582 101.0 602.5Q115 623 140 623Q163 623 176.5 603.0Q190 583 190 554Q190 538 187.0 522.0Q184 506 179 482Q202 425 225.0 381.0Q248 337 266.0 300.5Q284 264 295.5 232.0Q307 200 307 168Q307 126 290.0 88.0Q273 50 234 24Q239 23 244.0 23.0Q249 23 254 23Q311 23 359.0 49.0Q407 75 445.5 116.5Q484 158 514.0 208.5Q544 259 566 309Q576 332 594 332Q611 332 620.5 320.0Q630 308 630 294Q630 286 627 279Q616 252 598.5 217.5Q581 183 556.5 146.5Q532 110 500.0 75.0Q468 40 428.5 12.5Q389 -15 342.0 -31.5Q295 -48 239 -48Q172 -48 114.5 -24.5Q57 -1 21 53Q15 62 15 72Q15 87 26.5 98.5Q38 110 53 110Q69 110 80 99Q81 97 87.0 92.5Q93 88 101.5 82.5Q110 77 121.5 73.0Q133 69 145 69Q169 69 185.5 79.0Q202 89 212.0 103.5Q222 118 226.5 134.5Q231 151 231 163Q231 188 223.0 213.0Q215 238 202.5 263.0Q190 288 175.5 314.5Q161 341 149 370Z" transform="translate(439.707,-14.000) scale(0.04883,-0.04883)" fill="#277a70"/>
<path d="M411 266H626Q617 231 599.0 200.0Q581 169 554.0 145.0Q527 121 490.0 108.0Q453 95 406 95Q337 95 282.0 127.0Q227 159 195.0 216.5Q163 274 163 350Q163 427 195.5 483.5Q228 540 283.5 571.5Q339 603 406 603Q479 603 530.5 573.0Q582 543 611 493L707 557Q676 606 632.0 640.5Q588 675 531.5 694.0Q475 713 406 713Q327 713 260.0 686.5Q193 660 143.0 611.5Q93 563 65.5 496.5Q38 430 38 350Q38 270 65.0 203.0Q92 136 141.5 87.0Q191 38 258.0 11.5Q325 -15 404 -15Q488 -15 553.0 15.5Q618 46 662.0 99.0Q706 152 728.0 220.5Q750 289 748 366H411Z" transform="translate(240.000,120.000) scale(0.06600,-0.06600)" fill="#111111"/>
<path d="M163 350Q163 422 194.0 478.5Q225 535 278.5 567.0Q332 599 401 599Q472 599 525.5 567.0Q579 535 609.0 478.5Q639 422 639 350Q639 278 608.5 222.0Q578 166 524.5 133.5Q471 101 401 101Q332 101 278.5 133.5Q225 166 194.0 222.0Q163 278 163 350ZM38 350Q38 272 65.0 205.0Q92 138 141.0 89.0Q190 40 256.5 12.5Q323 -15 401 -15Q481 -15 547.0 12.5Q613 40 662.0 89.0Q711 138 738.0 205.0Q765 272 765 350Q765 429 738.0 495.0Q711 561 661.5 609.5Q612 658 546.0 685.5Q480 713 401 713Q324 713 257.5 685.5Q191 658 141.5 609.5Q92 561 65.0 495.0Q38 429 38 350Z" transform="translate(309.366,120.000) scale(0.06600,-0.06600)" fill="#111111"/>
<path d="M73 700V230Q73 172 91.5 126.5Q110 81 144.0 49.0Q178 17 225.0 0.0Q272 -17 328 -17Q384 -17 431.0 0.0Q478 17 512.5 49.0Q547 81 565.5 126.5Q584 172 584 230V700H465V235Q465 171 430.5 131.0Q396 91 328 91Q261 91 226.0 131.0Q191 171 191 235V700Z" transform="translate(379.524,120.000) scale(0.06600,-0.06600)" fill="#111111"/>
<path d="M223 334 445 0H588L350 334ZM78 700V0H196V700ZM148 598H289Q330 598 360.0 584.0Q390 570 407.0 544.0Q424 518 424 480Q424 443 407.0 416.5Q390 390 360.0 376.5Q330 363 289 363H148V265H294Q371 265 427.0 292.0Q483 319 514.5 368.0Q546 417 546 483Q546 549 514.5 597.5Q483 646 427.0 673.0Q371 700 294 700H148Z" transform="translate(439.980,120.000) scale(0.06600,-0.06600)" fill="#111111"/>
<path d="M208 426 421 65 635 426 683 0H805L709 735L421 260L134 735L38 0H160Z" transform="translate(496.410,120.000) scale(0.06600,-0.06600)" fill="#111111"/>
<path d="M151 0H504V104H151ZM151 596H504V700H151ZM151 324H484V426H151ZM78 700V0H194V700Z" transform="translate(569.208,120.000) scale(0.06600,-0.06600)" fill="#111111"/>
<path d="M8 591H193V0H311V591H496V700H8Z" transform="translate(624.054,120.000) scale(0.06600,-0.06600)" fill="#111111"/>
<path d="M166 350Q166 425 199.5 480.5Q233 536 287.0 566.5Q341 597 405 597Q455 597 495.5 584.0Q536 571 568.0 548.5Q600 526 624 498V638Q581 675 529.5 694.0Q478 713 401 713Q324 713 257.5 686.5Q191 660 142.0 611.5Q93 563 65.5 496.5Q38 430 38 350Q38 271 65.5 204.5Q93 138 142.0 89.0Q191 40 257.5 14.0Q324 -12 401 -12Q478 -12 529.5 7.0Q581 26 624 62V203Q600 174 568.0 151.5Q536 129 495.5 116.0Q455 103 405 103Q341 103 287.0 134.0Q233 165 199.5 220.5Q166 276 166 350Z" transform="translate(711.438,120.000) scale(0.06600,-0.06600)" fill="#111111"/>
<path d="M163 350Q163 422 194.0 478.5Q225 535 278.5 567.0Q332 599 401 599Q472 599 525.5 567.0Q579 535 609.0 478.5Q639 422 639 350Q639 278 608.5 222.0Q578 166 524.5 133.5Q471 101 401 101Q332 101 278.5 133.5Q225 166 194.0 222.0Q163 278 163 350ZM38 350Q38 272 65.0 205.0Q92 138 141.0 89.0Q190 40 256.5 12.5Q323 -15 401 -15Q481 -15 547.0 12.5Q613 40 662.0 89.0Q711 138 738.0 205.0Q765 272 765 350Q765 429 738.0 495.0Q711 561 661.5 609.5Q612 658 546.0 685.5Q480 713 401 713Q324 713 257.5 685.5Q191 658 141.5 609.5Q92 561 65.0 495.0Q38 429 38 350Z" transform="translate(774.204,120.000) scale(0.06600,-0.06600)" fill="#111111"/>
<path d="M208 426 421 65 635 426 683 0H805L709 735L421 260L134 735L38 0H160Z" transform="translate(844.362,120.000) scale(0.06600,-0.06600)" fill="#111111"/>
<path d="M78 700V0H196V700ZM148 596H289Q350 596 387.0 567.5Q424 539 424 483Q424 427 387.0 398.0Q350 369 289 369H148V265H289Q366 265 422.0 291.5Q478 318 509.5 367.0Q541 416 541 483Q541 550 509.5 598.5Q478 647 422.0 673.5Q366 700 289 700H148Z" transform="translate(917.160,120.000) scale(0.06600,-0.06600)" fill="#111111"/>
<path d="M162 180H532L510 280H185ZM345 502 457 242 459 213 554 0H688L345 739L3 0H136L233 219L235 245Z" transform="translate(972.468,120.000) scale(0.06600,-0.06600)" fill="#111111"/>
<path d="M124 226 36 164Q59 116 98.5 75.0Q138 34 190.5 9.5Q243 -15 304 -15Q349 -15 390.5 -0.5Q432 14 465.0 40.5Q498 67 517.5 106.0Q537 145 537 194Q537 240 521.0 274.5Q505 309 479.5 334.0Q454 359 422.5 376.0Q391 393 359 404Q303 424 268.0 443.0Q233 462 216.5 483.5Q200 505 200 532Q200 562 223.0 584.5Q246 607 295 607Q330 607 356.5 593.5Q383 580 403.0 557.5Q423 535 437 509L532 563Q515 600 483.0 634.0Q451 668 405.0 690.5Q359 713 297 713Q234 713 184.5 689.0Q135 665 106.0 622.5Q77 580 77 524Q77 475 96.0 440.5Q115 406 144.0 382.5Q173 359 205.0 343.5Q237 328 263 319Q307 303 341.0 286.5Q375 270 393.5 246.5Q412 223 412 185Q412 143 382.0 117.0Q352 91 304 91Q265 91 232.5 108.0Q200 125 173.5 155.0Q147 185 124 226Z" transform="translate(1035.168,120.000) scale(0.06600,-0.06600)" fill="#111111"/>
<path d="M124 226 36 164Q59 116 98.5 75.0Q138 34 190.5 9.5Q243 -15 304 -15Q349 -15 390.5 -0.5Q432 14 465.0 40.5Q498 67 517.5 106.0Q537 145 537 194Q537 240 521.0 274.5Q505 309 479.5 334.0Q454 359 422.5 376.0Q391 393 359 404Q303 424 268.0 443.0Q233 462 216.5 483.5Q200 505 200 532Q200 562 223.0 584.5Q246 607 295 607Q330 607 356.5 593.5Q383 580 403.0 557.5Q423 535 437 509L532 563Q515 600 483.0 634.0Q451 668 405.0 690.5Q359 713 297 713Q234 713 184.5 689.0Q135 665 106.0 622.5Q77 580 77 524Q77 475 96.0 440.5Q115 406 144.0 382.5Q173 359 205.0 343.5Q237 328 263 319Q307 303 341.0 286.5Q375 270 393.5 246.5Q412 223 412 185Q412 143 382.0 117.0Q352 91 304 91Q265 91 232.5 108.0Q200 125 173.5 155.0Q147 185 124 226Z" transform="translate(1090.542,120.000) scale(0.06600,-0.06600)" fill="#111111"/>
</svg>
